<svg width="223" height="104" viewBox="0 0 223 104" fill="none" xmlns="http://www.w3.org/2000/svg">
<path d="M0 16C0 7.16344 7.16345 0 16 0H207C215.837 0 223 7.16344 223 16V88C223 96.8366 215.837 104 207 104H16C7.16344 104 0 96.8366 0 88V16Z" fill="#000C14"/>
<path d="M29.632 33.024H36.16L43.264 56.64L51.04 33.024H57.568L65.344 56.64L72.448 33.024H78.976L68.56 66H62.56L54.352 41.52L46.048 66H40.048L29.632 33.024ZM82.6735 41.184H88.5295V66H82.6735V41.184ZM85.6015 37.44C84.6735 37.44 83.8735 37.104 83.2015 36.432C82.5615 35.76 82.2415 34.976 82.2415 34.08C82.2415 33.184 82.5615 32.416 83.2015 31.776C83.8735 31.104 84.6735 30.768 85.6015 30.768C86.4975 30.768 87.2655 31.104 87.9055 31.776C88.5455 32.416 88.8655 33.184 88.8655 34.08C88.8655 34.976 88.5455 35.76 87.9055 36.432C87.2655 37.104 86.4975 37.44 85.6015 37.44ZM94.1624 32.448H100.018V52.896L110.722 41.184H117.634L107.458 52.272L117.346 66H110.482L103.522 56.112L100.018 59.76V66H94.1624V32.448ZM121.486 41.184H127.342V66H121.486V41.184ZM124.414 37.44C123.486 37.44 122.686 37.104 122.014 36.432C121.374 35.76 121.054 34.976 121.054 34.08C121.054 33.184 121.374 32.416 122.014 31.776C122.686 31.104 123.486 30.768 124.414 30.768C125.31 30.768 126.078 31.104 126.718 31.776C127.358 32.416 127.678 33.184 127.678 34.08C127.678 34.976 127.358 35.76 126.718 36.432C126.078 37.104 125.31 37.44 124.414 37.44Z" fill="white"/>
<path d="M184.964 53.8571V62.4286C184.964 64.6202 184.183 66.5006 182.628 68.0562C181.072 69.6118 179.192 70.3929 177 70.3929H154.714C152.523 70.3929 150.642 69.6118 149.087 68.0562C147.531 66.5006 146.75 64.6202 146.75 62.4286V40.1429C146.75 37.9512 147.531 36.0708 149.087 34.5152C150.642 32.9596 152.523 32.1786 154.714 32.1786H173.571C173.88 32.1786 174.152 32.2804 174.364 32.4929C174.577 32.7054 174.679 32.9767 174.679 33.2857V35C174.679 35.309 174.577 35.5803 174.364 35.7928C174.152 36.0053 173.88 36.1071 173.571 36.1071H154.714C153.603 36.1071 152.657 36.5001 151.864 37.2928C151.072 38.0856 150.679 39.0311 150.679 40.1429V62.4286C150.679 63.5403 151.072 64.4858 151.864 65.2786C152.657 66.0714 153.603 66.4643 154.714 66.4643H177C178.112 66.4643 179.057 66.0714 179.85 65.2786C180.643 64.4858 181.036 63.5403 181.036 62.4286V53.8571C181.036 53.5481 181.138 53.2768 181.35 53.0643C181.563 52.8518 181.834 52.75 182.143 52.75H183.857C184.166 52.75 184.437 52.8518 184.65 53.0643C184.862 53.2768 184.964 53.5481 184.964 53.8571Z" fill="white" stroke="white" stroke-width="0.5"/>
<path d="M195 30.7143V44.4286C195 44.8929 194.83 45.2946 194.491 45.6339C194.152 45.9732 193.75 46.1429 193.286 46.1429C192.821 46.1429 192.42 45.9732 192.08 45.6339L187.366 40.9196L169.902 58.3839C169.723 58.5625 169.518 58.6518 169.286 58.6518C169.054 58.6518 168.848 58.5625 168.67 58.3839L165.616 55.3304C165.437 55.1518 165.348 54.9464 165.348 54.7143C165.348 54.4821 165.437 54.2768 165.616 54.0982L183.08 36.6339L178.366 31.9196C178.027 31.5804 177.857 31.1786 177.857 30.7143C177.857 30.25 178.027 29.8482 178.366 29.5089C178.705 29.1696 179.107 29 179.571 29H193.286C193.75 29 194.152 29.1696 194.491 29.5089C194.83 29.8482 195 30.25 195 30.7143Z" fill="white"/>
<path d="M16 8H207V-8H16V8ZM215 16V88H231V16H215ZM207 96H16V112H207V96ZM8 88V16H-8V88H8ZM16 96C11.5817 96 8 92.4183 8 88H-8C-8 101.255 2.74516 112 16 112V96ZM215 88C215 92.4183 211.418 96 207 96V112C220.255 112 231 101.255 231 88H215ZM207 8C211.418 8 215 11.5817 215 16H231C231 2.74517 220.255 -8 207 -8V8ZM16 -8C2.74517 -8 -8 2.74516 -8 16H8C8 11.5817 11.5817 8 16 8V-8Z" fill="#0099FF"/>
</svg>
