<svg width="292" height="104" viewBox="0 0 292 104" fill="none" xmlns="http://www.w3.org/2000/svg">
<rect x="4" y="4" width="284" height="96" rx="12" fill="#000C14"/>
<path d="M43.12 33.024C46.704 33.024 49.904 33.728 52.72 35.136C55.536 36.544 57.728 38.496 59.296 40.992C60.896 43.488 61.696 46.32 61.696 49.488C61.696 52.656 60.896 55.504 59.296 58.032C57.728 60.528 55.536 62.48 52.72 63.888C49.904 65.296 46.704 66 43.12 66H31.504V33.024H43.12ZM43.744 60.576C46.016 60.576 48.048 60.112 49.84 59.184C51.664 58.224 53.072 56.912 54.064 55.248C55.088 53.552 55.6 51.632 55.6 49.488C55.6 47.344 55.088 45.44 54.064 43.776C53.072 42.112 51.664 40.816 49.84 39.888C48.048 38.928 46.016 38.448 43.744 38.448H37.504V60.576H43.744ZM66.4548 41.184H72.3108V66H66.4548V41.184ZM69.3828 37.44C68.4548 37.44 67.6548 37.104 66.9828 36.432C66.3428 35.76 66.0228 34.976 66.0228 34.08C66.0228 33.184 66.3428 32.416 66.9828 31.776C67.6548 31.104 68.4548 30.768 69.3828 30.768C70.2788 30.768 71.0468 31.104 71.6868 31.776C72.3268 32.416 72.6468 33.184 72.6468 34.08C72.6468 34.976 72.3268 35.76 71.6868 36.432C71.0468 37.104 70.2788 37.44 69.3828 37.44ZM86.7824 66.576C84.8624 66.576 82.9264 66.256 80.9744 65.616C79.0544 64.944 77.3584 64.032 75.8864 62.88L78.3824 59.04C79.6944 60 81.0864 60.752 82.5584 61.296C84.0624 61.808 85.5024 62.064 86.8784 62.064C88.1904 62.064 89.2144 61.808 89.9504 61.296C90.7184 60.784 91.1024 60.096 91.1024 59.232C91.1024 58.336 90.6704 57.664 89.8064 57.216C88.9744 56.768 87.6464 56.304 85.8224 55.824C83.8064 55.28 82.1744 54.736 80.9264 54.192C79.7104 53.616 78.7504 52.864 78.0464 51.936C77.3744 51.008 77.0384 49.824 77.0384 48.384C77.0384 46.848 77.4224 45.504 78.1904 44.352C78.9904 43.168 80.0944 42.256 81.5024 41.616C82.9424 40.944 84.5744 40.608 86.3984 40.608C88.0304 40.608 89.6624 40.88 91.2944 41.424C92.9584 41.936 94.4784 42.656 95.8544 43.584L93.5984 47.52C92.3824 46.752 91.1504 46.16 89.9024 45.744C88.6544 45.296 87.4864 45.072 86.3984 45.072C85.2464 45.072 84.3024 45.328 83.5664 45.84C82.8304 46.32 82.4624 46.976 82.4624 47.808C82.4624 48.352 82.6384 48.784 82.9904 49.104C83.3424 49.424 83.8384 49.712 84.4784 49.968C85.1184 50.192 86.2224 50.544 87.7904 51.024C89.6144 51.536 91.1184 52.048 92.3024 52.56C93.4864 53.072 94.4784 53.824 95.2784 54.816C96.1104 55.808 96.5264 57.104 96.5264 58.704C96.5264 61.072 95.6304 62.976 93.8384 64.416C92.0464 65.856 89.6944 66.576 86.7824 66.576ZM111.921 66.576C109.553 66.576 107.345 65.984 105.297 64.8C103.281 63.616 101.665 62.032 100.449 60.048C99.2333 58.032 98.6253 55.872 98.6253 53.568C98.6253 51.264 99.2333 49.12 100.449 47.136C101.665 45.152 103.297 43.568 105.345 42.384C107.393 41.2 109.601 40.608 111.969 40.608C113.825 40.608 115.553 40.96 117.153 41.664C118.753 42.368 120.177 43.36 121.425 44.64L117.489 48.096C116.785 47.328 115.937 46.72 114.945 46.272C113.953 45.824 112.945 45.6 111.921 45.6C110.577 45.6 109.329 45.968 108.177 46.704C107.025 47.408 106.113 48.384 105.441 49.632C104.769 50.848 104.433 52.16 104.433 53.568C104.433 55.008 104.769 56.352 105.441 57.6C106.145 58.816 107.073 59.792 108.225 60.528C109.377 61.232 110.625 61.584 111.969 61.584C113.025 61.584 114.049 61.36 115.041 60.912C116.033 60.432 116.897 59.792 117.633 58.992L121.569 62.4C120.289 63.712 118.833 64.736 117.201 65.472C115.601 66.208 113.841 66.576 111.921 66.576ZM137.235 66.576C134.835 66.576 132.611 66 130.563 64.848C128.515 63.664 126.883 62.08 125.667 60.096C124.483 58.08 123.891 55.904 123.891 53.568C123.891 51.232 124.483 49.072 125.667 47.088C126.883 45.104 128.515 43.536 130.563 42.384C132.611 41.2 134.835 40.608 137.235 40.608C139.635 40.608 141.843 41.2 143.859 42.384C145.907 43.536 147.523 45.104 148.707 47.088C149.891 49.072 150.483 51.232 150.483 53.568C150.483 55.904 149.891 58.08 148.707 60.096C147.523 62.08 145.907 63.664 143.859 64.848C141.843 66 139.635 66.576 137.235 66.576ZM137.235 61.584C138.579 61.584 139.827 61.232 140.979 60.528C142.131 59.792 143.043 58.816 143.715 57.6C144.387 56.352 144.723 55.008 144.723 53.568C144.723 52.128 144.387 50.8 143.715 49.584C143.043 48.368 142.131 47.408 140.979 46.704C139.827 45.968 138.579 45.6 137.235 45.6C135.859 45.6 134.595 45.968 133.443 46.704C132.291 47.408 131.363 48.368 130.659 49.584C129.987 50.8 129.651 52.128 129.651 53.568C129.651 55.008 129.987 56.352 130.659 57.6C131.363 58.816 132.291 59.792 133.443 60.528C134.595 61.232 135.859 61.584 137.235 61.584ZM160.436 45.888C161.236 44.256 162.42 42.976 163.988 42.048C165.556 41.088 167.332 40.608 169.316 40.608V45.6C166.66 45.6 164.516 46.32 162.884 47.76C161.252 49.2 160.436 51.104 160.436 53.472V66H154.58V41.184H160.436V45.888ZM196.782 32.448V66H190.926V62.112C189.966 63.52 188.734 64.624 187.23 65.424C185.758 66.192 184.126 66.576 182.334 66.576C180.158 66.576 178.206 66.032 176.478 64.944C174.75 63.824 173.39 62.272 172.398 60.288C171.406 58.304 170.91 56.064 170.91 53.568C170.91 51.072 171.406 48.848 172.398 46.896C173.39 44.912 174.75 43.376 176.478 42.288C178.206 41.168 180.158 40.608 182.334 40.608C184.126 40.608 185.758 41.008 187.23 41.808C188.734 42.576 189.966 43.664 190.926 45.072V32.448H196.782ZM183.918 61.584C185.262 61.584 186.462 61.248 187.518 60.576C188.606 59.872 189.438 58.912 190.014 57.696C190.622 56.48 190.926 55.104 190.926 53.568C190.926 51.232 190.27 49.328 188.958 47.856C187.646 46.352 185.966 45.6 183.918 45.6C181.806 45.6 180.078 46.352 178.734 47.856C177.39 49.328 176.718 51.232 176.718 53.568C176.718 55.904 177.39 57.824 178.734 59.328C180.078 60.832 181.806 61.584 183.918 61.584Z" fill="white"/>
<path d="M253.964 53.8571V62.4286C253.964 64.6202 253.183 66.5006 251.628 68.0562C250.072 69.6118 248.192 70.3929 246 70.3929H223.714C221.523 70.3929 219.642 69.6118 218.087 68.0562C216.531 66.5006 215.75 64.6202 215.75 62.4286V40.1429C215.75 37.9512 216.531 36.0708 218.087 34.5152C219.642 32.9596 221.523 32.1786 223.714 32.1786H242.571C242.88 32.1786 243.152 32.2804 243.364 32.4929C243.577 32.7054 243.679 32.9767 243.679 33.2857V35C243.679 35.309 243.577 35.5803 243.364 35.7928C243.152 36.0053 242.88 36.1071 242.571 36.1071H223.714C222.603 36.1071 221.657 36.5001 220.864 37.2928C220.072 38.0856 219.679 39.0311 219.679 40.1429V62.4286C219.679 63.5403 220.072 64.4858 220.864 65.2786C221.657 66.0714 222.603 66.4643 223.714 66.4643H246C247.112 66.4643 248.057 66.0714 248.85 65.2786C249.643 64.4858 250.036 63.5403 250.036 62.4286V53.8571C250.036 53.5481 250.138 53.2768 250.35 53.0643C250.563 52.8518 250.834 52.75 251.143 52.75H252.857C253.166 52.75 253.437 52.8518 253.65 53.0643C253.862 53.2768 253.964 53.5481 253.964 53.8571Z" fill="white" stroke="white" stroke-width="0.5"/>
<path d="M264 30.7143V44.4286C264 44.8929 263.83 45.2946 263.491 45.6339C263.152 45.9732 262.75 46.1429 262.286 46.1429C261.821 46.1429 261.42 45.9732 261.08 45.6339L256.366 40.9196L238.902 58.3839C238.723 58.5625 238.518 58.6518 238.286 58.6518C238.054 58.6518 237.848 58.5625 237.67 58.3839L234.616 55.3304C234.437 55.1518 234.348 54.9464 234.348 54.7143C234.348 54.4821 234.437 54.2768 234.616 54.0982L252.08 36.6339L247.366 31.9196C247.027 31.5804 246.857 31.1786 246.857 30.7143C246.857 30.25 247.027 29.8482 247.366 29.5089C247.705 29.1696 248.107 29 248.571 29H262.286C262.75 29 263.152 29.1696 263.491 29.5089C263.83 29.8482 264 30.25 264 30.7143Z" fill="white"/>
<rect x="4" y="4" width="284" height="96" rx="12" stroke="#0099FF" stroke-width="8"/>
</svg>
