<svg width="279" height="104" viewBox="0 0 279 104" fill="none" xmlns="http://www.w3.org/2000/svg">
<rect x="4" y="4" width="271" height="96" rx="12" fill="#000C14"/>
<path d="M46.48 47.856H60.592V61.2C58.992 62.864 56.992 64.176 54.592 65.136C52.224 66.096 49.84 66.576 47.44 66.576C44.336 66.576 41.44 65.808 38.752 64.272C36.096 62.704 33.968 60.608 32.368 57.984C30.8 55.36 30.016 52.528 30.016 49.488C30.016 46.448 30.8 43.616 32.368 40.992C33.968 38.368 36.096 36.288 38.752 34.752C41.44 33.216 44.336 32.448 47.44 32.448C49.872 32.448 52.272 32.928 54.64 33.888C57.008 34.848 58.992 36.144 60.592 37.776L56.32 41.76C55.296 40.576 53.968 39.648 52.336 38.976C50.704 38.272 49.072 37.92 47.44 37.92C45.424 37.92 43.536 38.448 41.776 39.504C40.048 40.56 38.672 41.984 37.648 43.776C36.624 45.536 36.112 47.44 36.112 49.488C36.112 51.568 36.624 53.504 37.648 55.296C38.672 57.056 40.048 58.464 41.776 59.52C43.536 60.576 45.424 61.104 47.44 61.104C48.688 61.104 49.952 60.896 51.232 60.48C52.544 60.064 53.712 59.472 54.736 58.704V52.752H46.48V47.856ZM65.7985 41.184H71.6545V66H65.7985V41.184ZM68.7265 37.44C67.7985 37.44 66.9985 37.104 66.3265 36.432C65.6865 35.76 65.3665 34.976 65.3665 34.08C65.3665 33.184 65.6865 32.416 66.3265 31.776C66.9985 31.104 67.7985 30.768 68.7265 30.768C69.6225 30.768 70.3905 31.104 71.0305 31.776C71.6705 32.416 71.9905 33.184 71.9905 34.08C71.9905 34.976 71.6705 35.76 71.0305 36.432C70.3905 37.104 69.6225 37.44 68.7265 37.44ZM91.4954 64.608C90.7914 65.216 89.9594 65.696 88.9994 66.048C88.0714 66.4 87.1274 66.576 86.1674 66.576C84.1194 66.576 82.4394 65.904 81.1274 64.56C79.8474 63.216 79.2074 61.504 79.2074 59.424V46.032H75.6074V41.184H79.2074V34.368H84.8714V41.184H90.4874V46.032H84.8714V58.704C84.8714 59.536 85.1114 60.224 85.5914 60.768C86.0714 61.312 86.6474 61.584 87.3194 61.584C87.7994 61.584 88.2634 61.504 88.7114 61.344C89.1914 61.152 89.5594 60.928 89.8154 60.672L91.4954 64.608ZM118.749 33.024H124.701V66H118.749V51.936H102.285V66H96.2853V33.024H102.285V46.464H118.749V33.024ZM153.37 41.184V66H147.466V62.736C146.698 63.92 145.626 64.864 144.25 65.568C142.906 66.24 141.418 66.576 139.786 66.576C137.994 66.576 136.394 66.176 134.986 65.376C133.61 64.544 132.522 63.408 131.722 61.968C130.954 60.496 130.57 58.832 130.57 56.976V41.184H136.234V55.824C136.234 57.52 136.714 58.912 137.674 60C138.666 61.056 139.93 61.584 141.466 61.584C143.162 61.584 144.586 61.072 145.738 60.048C146.89 58.992 147.466 57.712 147.466 56.208V41.184H153.37ZM173.439 40.608C175.615 40.608 177.567 41.168 179.295 42.288C181.023 43.376 182.383 44.912 183.375 46.896C184.367 48.848 184.863 51.072 184.863 53.568C184.863 56.064 184.367 58.304 183.375 60.288C182.383 62.272 181.023 63.824 179.295 64.944C177.567 66.032 175.615 66.576 173.439 66.576C171.647 66.576 169.999 66.192 168.495 65.424C167.023 64.624 165.807 63.52 164.847 62.112V66H158.991V32.448H164.847V45.072C165.807 43.664 167.023 42.576 168.495 41.808C169.999 41.008 171.647 40.608 173.439 40.608ZM171.855 61.584C173.967 61.584 175.695 60.832 177.039 59.328C178.383 57.824 179.055 55.904 179.055 53.568C179.055 51.232 178.383 49.328 177.039 47.856C175.695 46.352 173.967 45.6 171.855 45.6C169.807 45.6 168.127 46.352 166.815 47.856C165.503 49.328 164.847 51.232 164.847 53.568C164.847 55.104 165.135 56.48 165.711 57.696C166.319 58.912 167.151 59.872 168.207 60.576C169.295 61.248 170.511 61.584 171.855 61.584Z" fill="white"/>
<path d="M240.964 53.8571V62.4286C240.964 64.6202 240.183 66.5006 238.628 68.0562C237.072 69.6118 235.192 70.3929 233 70.3929H210.714C208.523 70.3929 206.642 69.6118 205.087 68.0562C203.531 66.5006 202.75 64.6202 202.75 62.4286V40.1429C202.75 37.9512 203.531 36.0708 205.087 34.5152C206.642 32.9596 208.523 32.1786 210.714 32.1786H229.571C229.88 32.1786 230.152 32.2804 230.364 32.4929C230.577 32.7054 230.679 32.9767 230.679 33.2857V35C230.679 35.309 230.577 35.5803 230.364 35.7928C230.152 36.0053 229.88 36.1071 229.571 36.1071H210.714C209.603 36.1071 208.657 36.5001 207.864 37.2928C207.072 38.0856 206.679 39.0311 206.679 40.1429V62.4286C206.679 63.5403 207.072 64.4858 207.864 65.2786C208.657 66.0714 209.603 66.4643 210.714 66.4643H233C234.112 66.4643 235.057 66.0714 235.85 65.2786C236.643 64.4858 237.036 63.5403 237.036 62.4286V53.8571C237.036 53.5481 237.138 53.2768 237.35 53.0643C237.563 52.8518 237.834 52.75 238.143 52.75H239.857C240.166 52.75 240.437 52.8518 240.65 53.0643C240.862 53.2768 240.964 53.5481 240.964 53.8571Z" fill="white" stroke="white" stroke-width="0.5"/>
<path d="M251 30.7143V44.4286C251 44.8929 250.83 45.2946 250.491 45.6339C250.152 45.9732 249.75 46.1429 249.286 46.1429C248.821 46.1429 248.42 45.9732 248.08 45.6339L243.366 40.9196L225.902 58.3839C225.723 58.5625 225.518 58.6518 225.286 58.6518C225.054 58.6518 224.848 58.5625 224.67 58.3839L221.616 55.3304C221.437 55.1518 221.348 54.9464 221.348 54.7143C221.348 54.4821 221.437 54.2768 221.616 54.0982L239.08 36.6339L234.366 31.9196C234.027 31.5804 233.857 31.1786 233.857 30.7143C233.857 30.25 234.027 29.8482 234.366 29.5089C234.705 29.1696 235.107 29 235.571 29H249.286C249.75 29 250.152 29.1696 250.491 29.5089C250.83 29.8482 251 30.25 251 30.7143Z" fill="white"/>
<rect x="4" y="4" width="271" height="96" rx="12" stroke="#0099FF" stroke-width="8"/>
</svg>
